<svg width="34" height="24" viewBox="0 0 34 24" fill="none" xmlns="http://www.w3.org/2000/svg">
<path d="M21.0002 1.00037H29.6318C31.4921 1.00037 33.0002 2.50846 33.0002 4.36879V8.9068V14.9887V19.5267C33.0002 21.387 31.4921 22.8951 29.6318 22.8951H21.0002H13.0002H4.3686C2.50828 22.8951 1.00018 21.387 1.00018 19.5267V14.9887V8.9068V4.36879C1.00018 2.50846 2.50828 1.00037 4.36861 1.00037H13.0002H21.0002Z" fill="white"/>
<path d="M13.0002 1.00037L17.0002 4.95358M13.0002 1.00037H21.0002M13.0002 1.00037H4.36861C2.50828 1.00037 1.00018 2.50846 1.00018 4.36879V8.9068M17.0002 4.95358L21.0002 1.00037M17.0002 4.95358V8.9068H13.9233M21.0002 1.00037H29.6318C31.4921 1.00037 33.0002 2.50846 33.0002 4.36879V8.9068M13.0002 22.8951H4.3686C2.50828 22.8951 1.00018 21.387 1.00018 19.5267V14.9887M13.0002 22.8951L17.0002 18.9419M13.0002 22.8951H21.0002M17.0002 18.9419L21.0002 22.8951M17.0002 18.9419V14.9887M21.0002 22.8951H29.6318C31.4921 22.8951 33.0002 21.387 33.0002 19.5267V14.9887M17.0002 14.9887H20.0771M17.0002 14.9887H13.9233M1.00018 14.9887V8.9068M1.00018 14.9887H13.9233M33.0002 14.9887H20.0771M33.0002 14.9887V8.9068M1.00018 8.9068H13.9233M13.9233 8.9068V14.9887M20.0771 14.9887V8.9068H33.0002" stroke="#7D662D" stroke-width="0.842105"/>
</svg>
