<svg viewBox="0 0 304 70" fill="none" xmlns="http://www.w3.org/2000/svg">
<path d="M115.244 34.9999C115.244 38.3333 114.579 41.3333 113.25 43.6666C111.921 46.3333 109.927 48.3333 107.268 49.6666C104.61 50.9999 101.619 51.6666 98.2957 51.6666H86V18.3333H98.2957C101.619 18.3333 104.942 18.9999 107.268 20.3333C109.927 21.6666 111.588 23.6666 113.25 26.3333C114.579 28.6666 115.244 31.6666 115.244 34.9999ZM97.6311 44.3333C100.622 44.3333 102.948 43.3333 104.61 41.6666C106.271 39.9999 107.268 37.6666 107.268 34.6666C107.268 31.6666 106.271 29.3333 104.61 27.6666C102.948 25.9999 100.622 24.9999 97.6311 24.9999H93.9756V44.3333H97.6311Z" fill="white"/>
<path d="M147.81 18.3335L136.512 40.6668V51.6668H128.536V40.6668L117.237 18.3335H126.21L132.524 32.0002L138.838 18.3335H147.81Z" fill="white"/>
<path d="M179.381 51.6668H171.405L158.445 31.0002V51.6668H150.469V18.3335H158.445L171.405 39.0002V18.3335H179.381V51.6668Z" fill="white"/>
<path d="M204.97 45.6668H192.674L190.68 51.6668H182.705L194.668 18.3335H203.641L215.604 51.6668H207.296L204.97 45.6668ZM202.976 39.3335L198.988 27.0002L195 39.3335H202.976Z" fill="white"/>
<path d="M254.818 18.3335V51.6668H246.842V31.0002L239.864 52.0002H233.217L226.239 31.0002V52.0002H218.263V18.6668H227.9L236.541 42.0002L245.181 18.6668H254.818V18.3335Z" fill="white"/>
<path d="M268.109 18.3335V52.0002H260.133V18.3335H268.109Z" fill="white"/>
<path d="M288.381 18C292.369 18 296.024 19 298.683 21.3333C301.341 23.6667 303.003 26.6667 304 30.3333H295.692C295.027 28.6667 294.03 27.6667 292.701 26.6667C291.372 25.6667 290.042 25.3333 288.049 25.3333C285.722 25.3333 284.061 26.3333 282.399 28C281.07 29.6667 280.405 32 280.405 35C280.405 38 281.07 40.3333 282.399 42C283.728 43.6667 285.722 44.6667 288.049 44.6667C289.71 44.6667 291.372 44.3333 292.701 43.3333C294.03 42.3333 295.027 41.3333 295.692 39.6667H304C303.335 43.3333 301.341 46.6667 298.683 48.6667C296.024 51 292.701 52 288.381 52C285.39 52 282.399 51.3333 280.073 50C277.747 48.6667 275.753 46.6667 274.424 44C273.094 41.3333 272.43 38.3333 272.43 35C272.43 31.6667 273.094 28.6667 274.424 26C275.753 23.3333 277.747 21.3333 280.073 20C282.399 18.6667 285.39 18 288.381 18Z" fill="white"/>
<path d="M60.2593 39.0117C41.4702 38.3307 22.3395 39.6928 3.89204 42.7575C2.86718 42.7575 2.18394 43.4386 1.5007 44.4602C1.15908 45.4818 0.817462 46.5034 1.15908 47.1844C1.84232 48.8871 3.2088 49.5681 4.9169 49.5681C22.6811 48.5465 40.1037 48.8871 57.1847 50.9302C57.5263 50.9302 57.8679 50.9302 58.2095 50.9302C61.2841 50.9302 64.0171 48.8871 65.0419 46.1628C65.7252 44.4602 65.3836 42.7575 64.3587 41.3954C63.6755 40.0333 61.9674 39.3522 60.2593 39.0117Z" fill="white"/>
<path d="M59.9174 31.8608C60.2591 31.8608 60.2591 31.8608 60.6007 31.8608C61.9672 31.8608 63.6753 31.1797 64.7001 30.1581C65.725 28.796 66.4082 27.0934 65.725 25.3907C64.7001 21.9854 61.9672 19.9422 58.2093 19.6017C40.1035 19.2612 21.6561 20.6233 3.55021 23.3475C1.84212 23.6881 0.475639 24.7097 0.134019 26.4123C-0.207601 27.4339 0.134019 28.4555 0.817258 29.4771C1.5005 30.1581 2.52536 30.4986 3.55021 30.4986C22.3393 29.1365 41.47 29.4771 59.9174 31.8608Z" fill="white"/>
<path d="M20.2907 10.7479C29.1728 10.4074 38.3965 10.4074 47.2786 11.0885C47.2786 11.0885 47.2786 11.0885 47.6202 11.0885C49.3283 11.0885 50.6948 10.0669 51.0364 8.36424C51.3781 6.6616 50.6948 4.95895 49.3283 3.93737C48.6451 3.59684 47.6202 2.91578 46.5954 2.57525C37.3716 -1.17057 27.1231 -0.83004 18.241 3.59684C16.8745 4.61843 16.1912 6.32107 16.5329 8.02372C17.2161 9.72636 18.5826 10.7479 20.2907 10.7479Z" fill="white"/>
<path d="M47.2784 58.4221C38.7379 58.4221 30.1974 59.1032 21.6569 60.1248C19.9488 60.4653 18.5824 61.8274 18.2407 63.53C17.8991 65.2327 18.924 66.9353 20.6321 67.6164C24.7315 69.319 28.831 70.0001 33.272 70.0001C38.7379 70.0001 44.2038 68.638 49.3281 65.9138C51.0362 64.8922 51.7195 63.1895 51.0362 61.4869C50.6946 59.4437 48.9865 58.4221 47.2784 58.4221Z" fill="white"/>
</svg>
