<svg xmlns="http://www.w3.org/2000/svg" fill="none" viewBox="0 0 154 151">
  <g clip-path="url(#a)">
    <path fill="#F2F2F2" d="M97.8 34H56.3a3.6 3.6 0 0 0-3.6 3.5v92.7l-.5.1-10.2 3.2a1.9 1.9 0 0 1-2.3-1.3L9.4 32.8a2 2 0 0 1 1.3-2.3l15.6-4.9 45.5-14 15.7-4.8a1.9 1.9 0 0 1 2.4 1.3l7.7 25.4.2.5Z" />
    <path fill="#3F3D56" d="M106.8 33.5 97.5 2.9a4 4 0 0 0-5-2.7L70.3 7 24.9 21 3 27.6a4 4 0 0 0-2.7 5.1L32 137.4a4 4 0 0 0 5 2.7l15.1-4.7.5-.1v-.5l-.5.1-15.2 4.7a3.6 3.6 0 0 1-4.5-2.3L.6 32.7A3.6 3.6 0 0 1 3 28.2l22-6.8 45.5-14 22-6.8a3.6 3.6 0 0 1 3.3.6c.6.4 1 1 1.2 1.8l9.3 30.5.2.5h.5l-.2-.5Z" />
    <path fill="#6C63FF" d="M29.2 30.5a2.1 2.1 0 0 1-2-1.5L24 19a2.2 2.2 0 0 1 1.4-2.7L67.3 3.4A2.1 2.1 0 0 1 70 4.8l3 10a2.2 2.2 0 0 1-1.4 2.8L29.8 30.4l-.6.1Z" />
    <path fill="#6C63FF" d="M45.2 10.7a4.8 4.8 0 1 0 0-9.5 4.8 4.8 0 0 0 0 9.5Z" />
    <path fill="#fff" d="M45.2 9a3 3 0 1 0 0-6 3 3 0 0 0 0 6Z" />
    <path fill="#E6E6E6" d="M143.3 139H62.9a2 2 0 0 1-2-2V40.3a2 2 0 0 1 2-2h80.4a2 2 0 0 1 2 2V137a2 2 0 0 1-2 2Z" />
    <path fill="#3F3D56" d="M106.3 33.5h-50a4 4 0 0 0-4 4V135l.4-.1V37.5a3.6 3.6 0 0 1 3.6-3.5h50.2l-.2-.5Zm43.7 0H56.3a4 4 0 0 0-4 4V147a4 4 0 0 0 4 4.1H150a4 4 0 0 0 4-4V37.4a4 4 0 0 0-4-4Zm3.5 113.4a3.6 3.6 0 0 1-3.5 3.6H56.3a3.6 3.6 0 0 1-3.6-3.6V37.5a3.6 3.6 0 0 1 3.6-3.5H150a3.6 3.6 0 0 1 3.5 3.5V147Z" />
    <path fill="#6C63FF" d="M125 44H81.2a2.1 2.1 0 0 1-2.1-2.2V31.3a2.2 2.2 0 0 1 2.1-2.1H125a2.1 2.1 0 0 1 2.1 2.1v10.5A2.2 2.2 0 0 1 125 44Z" />
    <path fill="#6C63FF" d="M103.1 29.9a4.8 4.8 0 1 0 0-9.5 4.8 4.8 0 0 0 0 9.5Z" />
    <path fill="#fff" d="M103.1 28a2.9 2.9 0 1 0 0-5.8 2.9 2.9 0 0 0 0 5.8Z" />
  </g>
  <defs>
    <clipPath id="a">
      <path fill="#fff" d="M0 0H154V151H0z" />
    </clipPath>
  </defs>
</svg>