<svg xmlns="http://www.w3.org/2000/svg" width="100%" height="100%" viewBox="0 0 290 133" fill="none">
  <path d="M213.873 132.801L214.441 132.79C214.221 126.471 213.547 120.176 212.424 113.953C209.966 100.631 205.88 91.8819 200.278 87.9485L199.951 88.4136C213.038 97.6019 213.866 132.45 213.873 132.801Z" fill="#2F2E41" />
  <path d="M206.769 132.665L207.337 132.654C207.325 132.025 206.97 117.191 201.13 113.091L200.804 113.556C206.408 117.491 206.766 132.514 206.769 132.665Z" fill="#2F2E41" />
  <path d="M196.718 88.4651C198.288 88.4651 199.56 87.1928 199.56 85.6234C199.56 84.054 198.288 82.7817 196.718 82.7817C195.149 82.7817 193.876 84.054 193.876 85.6234C193.876 87.1928 195.149 88.4651 196.718 88.4651Z" fill="#6C63FF" />
  <path d="M198.125 112.904C199.695 112.904 200.967 111.631 200.967 110.062C200.967 108.492 199.695 107.22 198.125 107.22C196.556 107.22 195.284 108.492 195.284 110.062C195.284 111.631 196.556 112.904 198.125 112.904Z" fill="#6C63FF" />
  <path d="M208.093 90.1686C207.559 93.5797 208.951 96.6307 208.951 96.6307C208.951 96.6307 211.209 94.1511 211.743 90.74C212.277 87.3288 210.885 84.2778 210.885 84.2778C210.885 84.2778 208.628 86.7574 208.093 90.1686Z" fill="#2F2E41" />
  <path d="M198.805 98.4532C202.071 99.5735 205.317 98.7345 205.317 98.7345C205.317 98.7345 203.269 96.0792 200.003 94.9589C196.737 93.8387 193.49 94.6777 193.49 94.6777C193.49 94.6777 195.539 97.333 198.805 98.4532Z" fill="#2F2E41" />
  <path d="M198.7 120.096C200.178 120.56 201.752 120.628 203.265 120.293C202.304 119.07 201.011 118.151 199.54 117.646C198.069 117.142 196.484 117.073 194.975 117.449C195.964 118.642 197.248 119.555 198.7 120.096V120.096Z" fill="#2F2E41" />
  <path d="M92.382 44.102L74.061 34.5751C74.061 34.5751 67.9086 27.7996 64.0447 24.7392C60.1808 21.6788 58.9914 23.9271 58.9914 23.9271L57.3672 26.6342L61.2925 32.0935L71.8953 41.0721L90.8407 48.4927C91.137 48.9779 91.5649 49.369 92.0747 49.6207C92.5844 49.8723 93.1551 49.9742 93.7205 49.9144C94.2858 49.8547 94.8226 49.6357 95.2684 49.283C95.7143 48.9303 96.0509 48.4583 96.2392 47.9219C96.4275 47.3855 96.4597 46.8067 96.3322 46.2527C96.2046 45.6987 95.9225 45.1923 95.5186 44.7923C95.1146 44.3923 94.6055 44.115 94.0503 43.9929C93.4951 43.8707 92.9166 43.9085 92.382 44.102V44.102Z" fill="#9F616A" />
  <path d="M44.7271 35.8624L43.6425 29.2264L40.5797 28.4607C40.5797 28.4607 38.149 27.712 37.5808 32.6082C37.0127 37.5044 37.4532 46.6458 37.4532 46.6458L31.2348 66.3373C30.7175 66.5779 30.2793 66.9605 29.971 67.4405C29.6628 67.9206 29.4972 68.4783 29.4937 69.0487C29.4902 69.6192 29.6488 70.1789 29.951 70.6628C30.2533 71.1466 30.6868 71.5346 31.201 71.7816C31.7152 72.0286 32.289 72.1244 32.8556 72.0579C33.4222 71.9914 33.9582 71.7653 34.4013 71.406C34.8444 71.0466 35.1762 70.5688 35.3583 70.0281C35.5403 69.4875 35.565 68.9063 35.4295 68.3521L43.5787 49.7085L44.7271 35.8624Z" fill="#9F616A" />
  <path d="M70.0602 128.988L74.0678 128.988L75.9746 113.529L70.0593 113.53L70.0602 128.988Z" fill="#9F616A" />
  <path d="M69.0378 127.68L76.9306 127.679H76.9309C78.2649 127.679 79.5442 128.209 80.4875 129.152C81.4308 130.096 81.9607 131.375 81.9608 132.709V132.872L69.0381 132.873L69.0378 127.68Z" fill="#2F2E41" />
  <path d="M26.347 128.988L30.3549 128.988L32.2614 113.529L26.3464 113.53L26.347 128.988Z" fill="#9F616A" />
  <path d="M25.3247 127.68L33.2175 127.679H33.2178C34.5518 127.679 35.8311 128.209 36.7744 129.152C37.7177 130.096 38.2476 131.375 38.2477 132.709V132.872L25.3249 132.873L25.3247 127.68Z" fill="#2F2E41" />
  <path d="M46.1326 22.6065L39.4851 28.2812L44.9405 45.5451L46.1715 49.4002C46.1715 49.4002 38.6552 56.3302 34.0046 75.6892C29.354 95.0481 21.7461 120.771 21.7461 120.771L37.805 125.368L50.87 81.5765L66.2375 115.933L68.0118 126.094L81.6875 122.062L78.4616 96.577L62.332 52.4625L64.0075 40.7685C64.0075 40.7685 66.5235 34.9316 62.1526 28.752L60.7816 22.9453L55.8702 21.7356L46.1326 22.6065Z" fill="#2F2E41" />
  <path d="M57.1761 19.5217H39.2037C38.834 19.5213 38.4796 19.3742 38.2182 19.1128C37.9568 18.8514 37.8097 18.497 37.8093 18.1273V10.3806C37.8093 7.62747 38.903 4.98713 40.8497 3.0404C42.7965 1.09366 45.4368 0 48.1899 0C50.943 0 53.5833 1.09366 55.5301 3.0404C57.4768 4.98713 58.5705 7.62747 58.5705 10.3806V18.1273C58.57 18.497 58.423 18.8514 58.1616 19.1128C57.9002 19.3742 57.5458 19.5213 57.1761 19.5217V19.5217Z" fill="#2F2E41" />
  <path d="M57.001 15.3811C59.0171 11.6929 57.6616 7.0687 53.9735 5.05256C50.2853 3.03643 45.6611 4.39187 43.6449 8.08004C41.6288 11.7682 42.9842 16.3925 46.6724 18.4086C50.3606 20.4247 54.9848 19.0693 57.001 15.3811Z" fill="#9F616A" />
  <path d="M61.0263 11.1552H50.0366L49.9239 9.57746L49.3605 11.1552H47.6683L47.445 8.02813L46.3282 11.1552H43.054V11.0003C43.0564 8.82325 43.9223 6.73605 45.4617 5.19663C47.0011 3.65721 49.0883 2.79128 51.2654 2.78882H52.8148C54.9919 2.79128 57.0791 3.6572 58.6185 5.19662C60.1579 6.73604 61.0238 8.82324 61.0263 11.0003V11.1552Z" fill="#2F2E41" />
  <path d="M49.9467 20.9677C49.864 20.9676 49.7814 20.9603 49.6999 20.9459L41.6528 19.5261V6.22656H50.5112L50.2918 6.48227C47.2405 10.0409 49.5393 15.8113 51.1812 18.9342C51.3022 19.1629 51.3562 19.4211 51.3369 19.6792C51.3175 19.9372 51.2257 20.1846 51.072 20.3927C50.9433 20.5707 50.7742 20.7156 50.5786 20.8156C50.3829 20.9155 50.1664 20.9677 49.9467 20.9677V20.9677Z" fill="#2F2E41" />
  <path d="M116.496 90.6909L45.9707 115.626C44.227 116.24 42.3108 116.138 40.6425 115.341C38.9743 114.544 37.6901 113.118 37.0719 111.376L24.9567 77.1094C24.3424 75.3657 24.4449 73.4495 25.2416 71.7812C26.0384 70.1129 27.4643 68.8288 29.2066 68.2106L99.7317 43.2758C101.475 42.6615 103.392 42.764 105.06 43.5607C106.728 44.3575 108.012 45.7834 108.631 47.5257L120.746 81.7921C121.36 83.5359 121.258 85.4521 120.461 87.1203C119.664 88.7886 118.238 90.0727 116.496 90.6909Z" fill="white" />
  <path d="M120.746 81.7922L120.81 81.9735C121.398 83.6388 121.301 85.4696 120.54 87.0633C119.778 88.6569 118.415 89.8828 116.75 90.4713L45.8721 115.531C44.2072 116.119 42.3767 116.022 40.7833 115.261C39.1898 114.5 37.9639 113.137 37.3751 111.473L37.311 111.291L120.746 81.7922Z" fill="#F2F2F2" />
  <path d="M41.5695 76.1666C36.8948 79.2426 30.9035 76.9276 28.8081 73.5557L29.1422 73.3659C33.1219 70.8852 39.0322 72.2673 41.5695 76.1666Z" fill="#6C63FF" />
  <path d="M100.151 84.8936C99.0065 85.2981 97.9763 85.2796 97.0883 84.8384C95.0813 83.8412 94.1395 80.8844 93.3828 78.5085C93.1626 77.8173 92.9547 77.1644 92.7429 76.6308L92.7399 76.6227C92.3714 75.5641 92.4356 74.4029 92.9184 73.3913C93.4012 72.3798 94.2636 71.5996 95.3183 71.2202L104.804 67.8663C105.947 67.4623 106.976 67.4807 107.864 67.9211C109.87 68.917 110.813 71.8728 111.57 74.2478C111.791 74.9404 112 75.5946 112.212 76.129C112.583 77.1886 112.52 78.3517 112.037 79.3651C111.554 80.3786 110.691 81.1604 109.635 81.5405L100.151 84.8936ZM93.1373 76.479C93.3539 77.0254 93.5636 77.6836 93.7854 78.3803C94.518 80.6801 95.4297 83.5424 97.2763 84.4599C98.0689 84.8537 98.9631 84.8652 100.01 84.4952L109.493 81.1422C110.443 80.8007 111.22 80.0982 111.655 79.1872C112.09 78.2762 112.148 77.2304 111.816 76.277C111.601 75.737 111.391 75.076 111.167 74.3762C110.434 72.0772 109.522 69.2159 107.676 68.2996C106.884 67.9066 105.991 67.8952 104.945 68.2647L95.4598 71.6184C94.5109 71.9599 93.7349 72.6617 93.3001 73.5717C92.8653 74.4816 92.8068 75.5262 93.1373 76.479V76.479Z" fill="#3F3D56" />
  <path d="M39.6034 77.2742C37.9365 77.8522 36.1408 77.9509 34.4205 77.5591C31.9083 77.0074 29.6284 75.5075 28.4705 73.6448L28.3545 73.4581L28.8759 73.1617C32.9155 70.6455 38.9731 72.0096 41.5878 76.0268L41.7025 76.203L41.5269 76.3186C40.9268 76.7138 40.2809 77.0347 39.6034 77.2742V77.2742ZM28.949 73.6063C30.0821 75.2899 32.1906 76.6367 34.5112 77.1463C36.767 77.6732 39.1395 77.2903 41.115 76.0806C38.5574 72.381 32.8908 71.1538 29.0959 73.5227L28.949 73.6063Z" fill="#3F3D56" />
  <path d="M42.081 101.869C41.4888 102.103 40.8439 102.172 40.2156 102.067C39.5873 101.963 38.9992 101.69 38.5145 101.276C37.9472 100.78 37.5172 100.147 37.2658 99.4366C37.0144 98.7263 36.9502 97.9633 37.0793 97.221C37.1993 96.5822 37.4937 95.9892 37.93 95.5076C38.3663 95.0259 38.9274 94.6745 39.5512 94.4921L52.1907 90.0233C52.7906 89.7747 53.4474 89.6966 54.0888 89.7975C54.7303 89.8984 55.3314 90.1745 55.8259 90.5953C56.3929 91.0913 56.8226 91.725 57.0737 92.4353C57.3247 93.1456 57.3886 93.9085 57.2593 94.6507C57.0097 95.955 56.1291 96.9158 54.7868 97.3757L42.1471 101.845C42.1251 101.853 42.103 101.861 42.081 101.869ZM39.6299 94.912C39.0905 95.0785 38.6068 95.3888 38.2305 95.8096C37.8543 96.2303 37.5998 96.7457 37.4945 97.3002C37.3781 97.9689 37.436 98.6563 37.6625 99.2962C37.8889 99.9361 38.2764 100.507 38.7875 100.954C39.2256 101.325 39.758 101.567 40.3257 101.655C40.8933 101.742 41.4739 101.67 42.0033 101.447L54.649 96.9762C55.2012 96.817 55.6985 96.508 56.086 96.0835C56.4734 95.659 56.7358 95.1356 56.8442 94.5712C56.9608 93.9026 56.9032 93.2152 56.677 92.5753C56.4508 91.9355 56.0636 91.3646 55.5527 90.9178C55.1139 90.5469 54.5813 90.3042 54.0135 90.2165C53.4457 90.1288 52.8647 90.1995 52.3344 90.4208L39.6879 94.8921C39.6685 94.8986 39.649 94.9053 39.6298 94.9121L39.6299 94.912Z" fill="#3F3D56" />
  <path d="M100.235 74.8117L96.251 76.2204C95.9868 76.3138 95.6964 76.2985 95.4435 76.1777C95.1907 76.057 94.9961 75.8407 94.9027 75.5765C94.8093 75.3123 94.8247 75.0219 94.9454 74.769C95.0662 74.5161 95.2824 74.3216 95.5466 74.2282L99.5311 72.8195C99.7953 72.7261 100.086 72.7414 100.339 72.8622C100.591 72.9829 100.786 73.1992 100.879 73.4634C100.973 73.7276 100.957 74.018 100.837 74.2709C100.716 74.5238 100.5 74.7183 100.235 74.8117Z" fill="#6C63FF" />
  <path d="M101.362 77.9992L97.378 79.4079C97.1138 79.5014 96.8233 79.486 96.5705 79.3652C96.3176 79.2445 96.1231 79.0282 96.0297 78.764C95.9363 78.4998 95.9516 78.2094 96.0724 77.9565C96.1931 77.7036 96.4094 77.5091 96.6736 77.4157L100.658 76.007C100.922 75.9136 101.213 75.9289 101.466 76.0497C101.718 76.1704 101.913 76.3867 102.006 76.6509C102.1 76.9151 102.084 77.2055 101.964 77.4584C101.843 77.7113 101.627 77.9058 101.362 77.9992Z" fill="#6C63FF" />
  <path d="M102.489 81.1867L98.5049 82.5954C98.3741 82.6417 98.2355 82.6617 98.0969 82.6544C97.9584 82.6471 97.8226 82.6125 97.6974 82.5527C97.5722 82.4929 97.46 82.4091 97.3672 82.3059C97.2744 82.2027 97.2029 82.0823 97.1566 81.9515C97.1104 81.8207 97.0903 81.682 97.0977 81.5435C97.105 81.4049 97.1395 81.2692 97.1993 81.144C97.2591 81.0188 97.343 80.9066 97.4462 80.8138C97.5493 80.721 97.6697 80.6494 97.8006 80.6032L101.785 79.1944C101.916 79.1482 102.054 79.1282 102.193 79.1355C102.332 79.1428 102.467 79.1774 102.593 79.2372C102.718 79.297 102.83 79.3808 102.923 79.484C103.016 79.5871 103.087 79.7076 103.133 79.8384C103.18 79.9692 103.2 80.1078 103.192 80.2464C103.185 80.3849 103.15 80.5207 103.091 80.6459C103.031 80.7711 102.947 80.8833 102.844 80.9761C102.741 81.0689 102.62 81.1404 102.489 81.1867V81.1867Z" fill="#6C63FF" />
  <path d="M107.208 72.3464L103.224 73.7551C103.093 73.8014 102.954 73.8214 102.816 73.8141C102.677 73.8067 102.541 73.7722 102.416 73.7124C102.291 73.6526 102.179 73.5687 102.086 73.4656C101.993 73.3624 101.922 73.242 101.875 73.1112C101.829 72.9804 101.809 72.8417 101.816 72.7032C101.824 72.5646 101.858 72.4289 101.918 72.3037C101.978 72.1785 102.062 72.0663 102.165 71.9735C102.268 71.8807 102.388 71.8091 102.519 71.7629L106.504 70.3541C106.768 70.2607 107.058 70.2761 107.311 70.3969C107.564 70.5176 107.759 70.7339 107.852 70.9981C107.945 71.2622 107.93 71.5527 107.809 71.8056C107.689 72.0584 107.472 72.253 107.208 72.3464V72.3464Z" fill="#6C63FF" />
  <path d="M108.335 75.5339L104.351 76.9426C104.22 76.9889 104.081 77.0089 103.943 77.0016C103.804 76.9942 103.668 76.9597 103.543 76.8999C103.418 76.8401 103.306 76.7562 103.213 76.6531C103.12 76.5499 103.049 76.4295 103.002 76.2987C102.956 76.1679 102.936 76.0292 102.943 75.8907C102.951 75.7521 102.985 75.6164 103.045 75.4912C103.105 75.366 103.189 75.2538 103.292 75.161C103.395 75.0682 103.515 74.9966 103.646 74.9504L107.631 73.5416C107.762 73.4954 107.9 73.4753 108.039 73.4827C108.177 73.49 108.313 73.5246 108.438 73.5843C108.563 73.6441 108.676 73.728 108.768 73.8312C108.861 73.9343 108.933 74.0547 108.979 74.1856C109.025 74.3164 109.045 74.455 109.038 74.5936C109.031 74.7321 108.996 74.8679 108.936 74.9931C108.877 75.1183 108.793 75.2305 108.689 75.3233C108.586 75.416 108.466 75.4876 108.335 75.5339V75.5339Z" fill="#6C63FF" />
  <path d="M109.462 78.7216L105.478 80.1304C105.214 80.2238 104.923 80.2084 104.67 80.0876C104.417 79.9669 104.223 79.7506 104.13 79.4864C104.036 79.2222 104.051 78.9318 104.172 78.6789C104.293 78.4261 104.509 78.2315 104.773 78.1381L108.758 76.7294C108.889 76.6831 109.027 76.6631 109.166 76.6704C109.304 76.6778 109.44 76.7123 109.565 76.7721C109.691 76.8319 109.803 76.9158 109.896 77.0189C109.988 77.1221 110.06 77.2425 110.106 77.3733C110.152 77.5041 110.173 77.6428 110.165 77.7813C110.158 77.9199 110.123 78.0556 110.064 78.1808C110.004 78.306 109.92 78.4182 109.817 78.511C109.714 78.6038 109.593 78.6754 109.462 78.7216Z" fill="#6C63FF" />
  <path d="M111.268 54.9849L27.8335 84.4841L27.9744 84.8826L111.409 55.3833L111.268 54.9849Z" fill="#3F3D56" />
  <path d="M116.496 90.6909L45.9707 115.626C44.227 116.24 42.3108 116.138 40.6425 115.341C38.9743 114.544 37.6901 113.118 37.0719 111.376L24.9567 77.1094C24.3424 75.3657 24.4449 73.4495 25.2416 71.7812C26.0384 70.1129 27.4643 68.8288 29.2066 68.2106L99.7317 43.2758C101.475 42.6615 103.392 42.764 105.06 43.5607C106.728 44.3575 108.012 45.7834 108.631 47.5257L120.746 81.7921C121.36 83.5359 121.258 85.4521 120.461 87.1203C119.664 88.7886 118.238 90.0727 116.496 90.6909ZM29.3475 68.609C27.7108 69.1898 26.3713 70.3961 25.6228 71.9632C24.8744 73.5304 24.7781 75.3305 25.3552 76.9685L37.4704 111.235C38.0511 112.872 39.2574 114.211 40.8246 114.96C42.3917 115.708 44.1918 115.804 45.8298 115.227L116.355 90.2925C117.992 89.7117 119.331 88.5054 120.08 86.9383C120.828 85.3711 120.924 83.5711 120.347 81.933L108.232 47.6666C107.651 46.0299 106.445 44.6904 104.878 43.9419C103.311 43.1934 101.511 43.0972 99.8726 43.6742L29.3475 68.609Z" fill="#3F3D56" />
</svg>